<svg xmlns="http://www.w3.org/2000/svg" fill="none" viewBox="239 239 633 633"><path d="M555.5 239C585.293 239 611.482 296.766 626.525 384.028C698.867 332.962 758.232 310.635 779.299 331.701C800.365 352.768 778.038 412.132 726.972 484.474C814.234 499.517 872 525.707 872 555.5C872 585.293 814.234 611.482 726.972 626.525C778.039 698.867 800.366 758.233 779.3 779.3C758.233 800.367 698.867 778.039 626.525 726.972C611.482 814.234 585.293 872 555.5 872C525.707 872 499.517 814.235 484.474 726.972C412.132 778.038 352.768 800.366 331.701 779.3C310.634 758.233 332.96 698.867 384.027 626.525C296.765 611.482 239 585.293 239 555.5C239 525.707 296.766 499.517 384.028 484.474C332.962 412.132 310.635 352.768 331.701 331.701C352.768 310.635 412.133 332.962 484.474 384.028C499.517 296.765 525.707 239 555.5 239Z" fill="url(#paint0_linear_41_11)"></path><defs><linearGradient id="paint0_linear_41_11" x1="239" y1="239" x2="886.752" y2="872" gradientUnits="userSpaceOnUse"><stop stop-color="#FF15DC"></stop><stop offset="1" stop-color="#FFD4F3"></stop></linearGradient></defs></svg>