<svg xmlns="http://www.w3.org/2000/svg" fill="none" viewBox="173 482.5 720.34 169"><path d="M370.006 621.723V538.725H381.661V546.907C383.976 543.964 386.939 541.57 390.55 539.726C394.16 537.881 398.614 536.959 403.912 536.959C409.602 536.959 414.644 538.313 419.04 541.021C423.474 543.689 426.927 547.358 429.4 552.028C431.872 556.659 433.108 561.937 433.108 567.862C433.108 572.14 432.402 576.162 430.989 579.93C429.576 583.658 427.555 586.934 424.926 589.76C422.336 592.585 419.236 594.802 415.625 596.411C412.054 597.981 408.091 598.766 403.735 598.766C399.183 598.766 395.18 597.942 391.727 596.294C388.273 594.645 385.33 592.428 382.897 589.642V621.723H370.006ZM401.557 587.287C405.167 587.287 408.366 586.503 411.152 584.933C413.977 583.324 416.175 581.068 417.745 578.164C419.353 575.26 420.158 571.826 420.158 567.862C420.158 563.899 419.353 560.465 417.745 557.561C416.136 554.618 413.918 552.362 411.093 550.792C408.307 549.222 405.128 548.437 401.557 548.437C397.947 548.437 394.729 549.222 391.903 550.792C389.117 552.362 386.92 554.618 385.311 557.561C383.702 560.465 382.897 563.899 382.897 567.862C382.897 571.826 383.702 575.26 385.311 578.164C386.92 581.068 389.117 583.324 391.903 584.933C394.729 586.503 397.947 587.287 401.557 587.287ZM442.583 597V538.725H455.533V546.789C457.731 543.14 460.399 540.589 463.539 539.137C466.678 537.646 470.053 536.9 473.663 536.9C474.84 536.9 475.959 536.959 477.018 537.077C478.078 537.195 479.098 537.371 480.079 537.607L478.372 550.969C477.195 550.615 475.998 550.341 474.782 550.145C473.565 549.948 472.349 549.85 471.132 549.85C466.619 549.85 462.891 551.243 459.948 554.03C457.005 556.777 455.533 560.524 455.533 565.272V597H442.583ZM512.795 598.766C506.516 598.766 501.002 597.491 496.254 594.94C491.506 592.35 487.797 588.739 485.129 584.109C482.499 579.478 481.185 574.102 481.185 567.98C481.185 563.507 481.95 559.386 483.481 555.619C485.011 551.812 487.169 548.516 489.956 545.73C492.742 542.944 495.999 540.785 499.727 539.255C503.494 537.724 507.595 536.959 512.029 536.959C516.856 536.959 521.153 537.822 524.921 539.549C528.688 541.237 531.808 543.611 534.28 546.672C536.791 549.732 538.557 553.323 539.578 557.444C540.637 561.525 540.814 565.959 540.107 570.747H493.605C493.527 574.239 494.292 577.3 495.901 579.93C497.51 582.52 499.805 584.541 502.788 585.992C505.809 587.444 509.361 588.17 513.442 588.17C516.738 588.17 519.917 587.68 522.978 586.699C526.078 585.679 528.884 584.187 531.396 582.225L536.399 591.526C534.515 593.056 532.239 594.371 529.571 595.47C526.902 596.529 524.116 597.334 521.212 597.883C518.308 598.472 515.502 598.766 512.795 598.766ZM494.37 561.211H527.393C527.275 556.816 525.862 553.362 523.155 550.851C520.486 548.339 516.68 547.084 511.735 547.084C506.947 547.084 502.964 548.339 499.786 550.851C496.646 553.362 494.841 556.816 494.37 561.211ZM573.94 598.766C568.25 598.766 563.698 597.118 560.284 593.821C556.87 590.525 555.163 585.482 555.163 578.693V521.713H568.113V538.725H584.3V549.438H568.113V575.868C568.113 579.949 568.878 582.833 570.408 584.521C571.978 586.169 574.176 586.993 577.001 586.993C578.375 586.993 579.67 586.836 580.886 586.522C582.103 586.208 583.201 585.796 584.182 585.286L586.478 595.764C584.791 596.627 582.848 597.334 580.651 597.883C578.492 598.472 576.255 598.766 573.94 598.766ZM542.389 549.438V538.725H556.87V549.438H542.389ZM620.994 598.766C615.304 598.766 610.752 597.118 607.338 593.821C603.924 590.525 602.217 585.482 602.217 578.693V521.713H615.167V538.725H631.354V549.438H615.167V575.868C615.167 579.949 615.932 582.833 617.462 584.521C619.032 586.169 621.23 586.993 624.055 586.993C625.429 586.993 626.724 586.836 627.94 586.522C629.157 586.208 630.255 585.796 631.237 585.286L633.532 595.764C631.845 596.627 629.902 597.334 627.705 597.883C625.546 598.472 623.31 598.766 620.994 598.766ZM589.443 549.438V538.725H603.924V549.438H589.443ZM643.561 597V538.725H656.511V597H643.561ZM650.036 528.306C647.721 528.306 645.719 527.561 644.032 526.069C642.345 524.578 641.501 522.616 641.501 520.183C641.501 517.789 642.345 515.847 644.032 514.355C645.719 512.825 647.721 512.06 650.036 512.06C652.351 512.06 654.353 512.825 656.04 514.355C657.728 515.847 658.571 517.789 658.571 520.183C658.571 522.616 657.728 524.578 656.04 526.069C654.353 527.561 652.351 528.306 650.036 528.306ZM676.665 597V529.189C676.665 523.381 678.333 518.809 681.669 515.474C685.044 512.138 689.694 510.47 695.62 510.47C697.778 510.47 699.74 510.706 701.506 511.177C703.311 511.608 704.979 512.236 706.509 513.06L704.096 523.303C702.958 522.675 701.859 522.243 700.8 522.008C699.74 521.772 698.7 521.655 697.68 521.655C695.286 521.655 693.324 522.263 691.793 523.479C690.302 524.696 689.557 526.776 689.557 529.719V538.725H704.861V549.438H689.557V597H676.665ZM664.952 549.438V538.725H678.372V549.438H664.952ZM716.634 597V512.236H729.584V597H716.634ZM770.655 598.766C764.572 598.766 759.137 597.373 754.35 594.587C749.601 591.761 745.873 588.013 743.166 583.344C740.458 578.635 739.104 573.474 739.104 567.862C739.104 563.703 739.869 559.779 741.4 556.09C742.97 552.362 745.167 549.065 747.993 546.201C750.857 543.336 754.212 541.08 758.058 539.431C761.904 537.783 766.123 536.959 770.714 536.959C776.796 536.959 782.212 538.372 786.96 541.197C791.748 543.983 795.496 547.731 798.203 552.44C800.911 557.11 802.265 562.251 802.265 567.862C802.265 571.983 801.48 575.907 799.91 579.635C798.38 583.363 796.202 586.66 793.376 589.524C790.551 592.389 787.215 594.645 783.37 596.294C779.524 597.942 775.286 598.766 770.655 598.766ZM770.655 587.287C774.265 587.287 777.464 586.503 780.25 584.933C783.075 583.324 785.292 581.068 786.901 578.164C788.51 575.26 789.315 571.826 789.315 567.862C789.315 563.899 788.51 560.465 786.901 557.561C785.292 554.618 783.075 552.362 780.25 550.792C777.464 549.222 774.265 548.437 770.655 548.437C767.045 548.437 763.827 549.222 761.001 550.792C758.215 552.362 756.018 554.618 754.409 557.561C752.839 560.465 752.054 563.899 752.054 567.862C752.054 571.826 752.859 575.26 754.468 578.164C756.076 581.068 758.274 583.324 761.06 584.933C763.886 586.503 767.084 587.287 770.655 587.287ZM822.174 597L803.867 538.725H816.758L829.237 582.049L842.894 538.725H855.549L868.323 582.049L881.037 538.725H893.34L875.033 597H861.671L848.839 555.148L835.536 597H822.174Z" fill="white"></path><path d="M257.5 482.5C265.454 482.5 272.446 497.922 276.462 521.22C295.776 507.586 311.627 501.626 317.251 507.25C322.875 512.875 316.913 528.724 303.279 548.037C326.577 552.053 342 559.046 342 567C342 574.954 326.577 581.946 303.278 585.962C316.913 605.276 322.876 621.126 317.251 626.751C311.626 632.375 295.776 626.414 276.462 612.779C272.446 636.077 265.454 651.5 257.5 651.5C249.546 651.5 242.553 636.077 238.537 612.779C219.223 626.413 203.373 632.375 197.749 626.751C192.125 621.126 198.086 605.276 211.721 585.962C188.423 581.946 173 574.954 173 567C173 559.046 188.422 552.053 211.72 548.037C198.086 528.723 192.125 512.873 197.749 507.249C203.373 501.625 219.223 507.586 238.537 521.22C242.553 497.922 249.546 482.5 257.5 482.5Z" fill="url(#paint0_linear_41_20)"></path><defs><linearGradient id="paint0_linear_41_20" x1="173" y1="482.5" x2="345.939" y2="651.5" gradientUnits="userSpaceOnUse"><stop stop-color="#FF15DC"></stop><stop offset="1" stop-color="#FFD4F3"></stop></linearGradient></defs></svg>